<?xml version="1.0" encoding="UTF-8" standalone="no"?>
<!DOCTYPE svg PUBLIC "-//W3C//DTD SVG 1.1//EN" "http://www.w3.org/Graphics/SVG/1.1/DTD/svg11.dtd">
<svg xmlns="http://www.w3.org/2000/svg" version="1.1" viewBox="0.00 0.00 180.00 180.00" width="128" height="128">
<g stroke-width="2.00" fill="none" stroke-linecap="butt">
<path stroke="#ffe28a" vector-effect="non-scaling-stroke" d="
  M 110.45 95.62
  Q 120.54 86.66 148.52 62.26
  Q 150.46 60.57 150.69 58.47
  Q 153.21 36.03 138.64 20.85
  C 119.23 0.63 86.10 3.00 69.88 25.97
  A 3.43 3.28 69.4 0 0 69.33 27.26
  L 62.93 60.50
  A 1.86 1.83 38.3 0 0 63.07 61.62
  L 70.14 76.78
  A 2.56 2.55 89.6 0 0 71.40 78.03
  L 110.10 95.67
  A 0.33 0.31 34.8 0 0 110.45 95.62"
/>
<path stroke="#f8a7cc" vector-effect="non-scaling-stroke" d="
  M 56.86 56.90
  L 62.59 27.18
  A 1.34 1.34 0.0 0 0 61.95 25.77
  Q 51.99 19.86 42.63 23.18
  C 31.10 27.27 25.78 38.71 29.10 50.48
  A 1.04 1.04 0.0 0 0 29.86 51.20
  L 56.09 57.40
  A 0.64 0.63 -77.4 0 0 56.86 56.90"
/>
<path stroke="#8dd4fa" vector-effect="non-scaling-stroke" d="
  M 63.92 79.05
  L 57.22 64.70
  A 0.89 0.87 83.7 0 0 56.65 64.23
  L 27.65 57.38
  A 2.03 1.98 40.0 0 0 26.43 57.47
  Q 14.12 62.37 9.29 73.31
  C 2.30 89.15 9.08 107.10 25.46 113.67
  A 0.87 0.86 34.9 0 0 26.36 113.51
  L 63.79 79.68
  A 0.56 0.54 57.7 0 0 63.92 79.05"
/>
<path stroke="#80bbe6" vector-effect="non-scaling-stroke" d="
  M 115.27 101.18
  L 122.46 114.92
  A 1.97 1.95 -6.8 0 0 123.74 115.92
  L 152.15 122.64
  A 2.83 2.79 -49.5 0 0 153.89 122.49
  C 179.54 111.72 180.24 78.01 154.87 66.39
  A 1.24 1.22 36.2 0 0 153.55 66.58
  L 115.51 99.91
  A 1.05 1.04 55.7 0 0 115.27 101.18"
/>
<path stroke="#80dfd9" vector-effect="non-scaling-stroke" d="
  M 68.97 84.19
  A 0.59 0.57 36.1 0 0 68.34 84.28
  L 29.93 118.99
  A 1.44 1.40 74.0 0 0 29.49 119.81
  C 25.34 144.71 40.66 167.95 65.82 172.48
  C 82.88 175.55 99.47 168.57 109.94 154.70
  A 5.04 5.01 -21.2 0 0 110.86 152.63
  L 117.22 119.61
  A 1.55 1.53 37.0 0 0 117.07 118.58
  L 108.98 103.12
  A 3.02 3.00 -1.4 0 0 107.55 101.77
  L 68.97 84.19"
/>
<path stroke="#c9e487" vector-effect="non-scaling-stroke" d="
  M 123.17 123.18
  L 117.49 152.85
  A 1.34 1.33 20.6 0 0 118.13 154.25
  Q 128.07 160.14 137.41 156.82
  C 148.92 152.72 154.21 141.30 150.88 129.55
  A 1.04 1.04 0.0 0 0 150.12 128.83
  L 123.94 122.68
  A 0.64 0.63 -77.5 0 0 123.17 123.18"
/>
</g>
<path fill="#ffffff" d="
  M 111.97 0.00
  C 142.07 3.94 161.91 30.04 157.18 60.12
  A 0.64 0.63 -74.4 0 0 157.56 60.81
  Q 175.58 68.21 180.00 87.44
  L 180.00 100.95
  Q 176.16 117.97 161.14 126.22
  C 159.87 126.92 158.58 127.22 157.47 127.85
  A 0.73 0.73 0.0 0 0 157.12 128.70
  Q 160.79 141.12 154.73 151.16
  C 146.33 165.09 128.71 168.94 115.21 159.42
  A 0.59 0.58 36.1 0 0 114.40 159.54
  Q 100.83 177.13 78.59 180.00
  L 68.05 180.00
  Q 40.19 176.15 27.67 152.28
  Q 20.02 137.70 22.90 119.97
  A 0.64 0.64 0.0 0 0 22.52 119.28
  Q 4.52 111.76 0.00 92.56
  L 0.00 79.05
  Q 4.52 59.77 22.57 52.03
  A 0.58 0.58 0.0 0 0 22.90 51.35
  Q 18.05 34.15 30.69 22.23
  C 39.88 13.56 54.50 13.25 64.80 20.56
  A 0.66 0.66 0.0 0 0 65.70 20.42
  Q 79.22 2.85 101.44 0.00
  L 111.97 0.00
  Z
  M 110.45 95.62
  Q 120.54 86.66 148.52 62.26
  Q 150.46 60.57 150.69 58.47
  Q 153.21 36.03 138.64 20.85
  C 119.23 0.63 86.10 3.00 69.88 25.97
  A 3.43 3.28 69.4 0 0 69.33 27.26
  L 62.93 60.50
  A 1.86 1.83 38.3 0 0 63.07 61.62
  L 70.14 76.78
  A 2.56 2.55 89.6 0 0 71.40 78.03
  L 110.10 95.67
  A 0.33 0.31 34.8 0 0 110.45 95.62
  Z
  M 56.86 56.90
  L 62.59 27.18
  A 1.34 1.34 0.0 0 0 61.95 25.77
  Q 51.99 19.86 42.63 23.18
  C 31.10 27.27 25.78 38.71 29.10 50.48
  A 1.04 1.04 0.0 0 0 29.86 51.20
  L 56.09 57.40
  A 0.64 0.63 -77.4 0 0 56.86 56.90
  Z
  M 63.92 79.05
  L 57.22 64.70
  A 0.89 0.87 83.7 0 0 56.65 64.23
  L 27.65 57.38
  A 2.03 1.98 40.0 0 0 26.43 57.47
  Q 14.12 62.37 9.29 73.31
  C 2.30 89.15 9.08 107.10 25.46 113.67
  A 0.87 0.86 34.9 0 0 26.36 113.51
  L 63.79 79.68
  A 0.56 0.54 57.7 0 0 63.92 79.05
  Z
  M 115.27 101.18
  L 122.46 114.92
  A 1.97 1.95 -6.8 0 0 123.74 115.92
  L 152.15 122.64
  A 2.83 2.79 -49.5 0 0 153.89 122.49
  C 179.54 111.72 180.24 78.01 154.87 66.39
  A 1.24 1.22 36.2 0 0 153.55 66.58
  L 115.51 99.91
  A 1.05 1.04 55.7 0 0 115.27 101.18
  Z
  M 68.97 84.19
  A 0.59 0.57 36.1 0 0 68.34 84.28
  L 29.93 118.99
  A 1.44 1.40 74.0 0 0 29.49 119.81
  C 25.34 144.71 40.66 167.95 65.82 172.48
  C 82.88 175.55 99.47 168.57 109.94 154.70
  A 5.04 5.01 -21.2 0 0 110.86 152.63
  L 117.22 119.61
  A 1.55 1.53 37.0 0 0 117.07 118.58
  L 108.98 103.12
  A 3.02 3.00 -1.4 0 0 107.55 101.77
  L 68.97 84.19
  Z
  M 123.17 123.18
  L 117.49 152.85
  A 1.34 1.33 20.6 0 0 118.13 154.25
  Q 128.07 160.14 137.41 156.82
  C 148.92 152.72 154.21 141.30 150.88 129.55
  A 1.04 1.04 0.0 0 0 150.12 128.83
  L 123.94 122.68
  A 0.64 0.63 -77.5 0 0 123.17 123.18
  Z"
/>
<path fill="#fec514" d="
  M 110.45 95.62
  A 0.33 0.31 34.8 0 1 110.10 95.67
  L 71.40 78.03
  A 2.56 2.55 89.6 0 1 70.14 76.78
  L 63.07 61.62
  A 1.86 1.83 38.3 0 1 62.93 60.50
  L 69.33 27.26
  A 3.43 3.28 69.4 0 1 69.88 25.97
  C 86.10 3.00 119.23 0.63 138.64 20.85
  Q 153.21 36.03 150.69 58.47
  Q 150.46 60.57 148.52 62.26
  Q 120.54 86.66 110.45 95.62
  Z"
/>
<path fill="#f04e98" d="
  M 56.09 57.40
  L 29.86 51.20
  A 1.04 1.04 0.0 0 1 29.10 50.48
  C 25.78 38.71 31.10 27.27 42.63 23.18
  Q 51.99 19.86 61.95 25.77
  A 1.34 1.34 0.0 0 1 62.59 27.18
  L 56.86 56.90
  A 0.64 0.63 -77.4 0 1 56.09 57.40
  Z"
/>
<path fill="#1ba9f5" d="
  M 63.92 79.05
  A 0.56 0.54 57.7 0 1 63.79 79.68
  L 26.36 113.51
  A 0.87 0.86 34.9 0 1 25.46 113.67
  C 9.08 107.10 2.30 89.15 9.29 73.31
  Q 14.12 62.37 26.43 57.47
  A 2.03 1.98 40.0 0 1 27.65 57.38
  L 56.65 64.23
  A 0.89 0.87 83.7 0 1 57.22 64.70
  L 63.92 79.05
  Z"
/>
<path fill="#0077cc" d="
  M 115.51 99.91
  L 153.55 66.58
  A 1.24 1.22 36.2 0 1 154.87 66.39
  C 180.24 78.01 179.54 111.72 153.89 122.49
  A 2.83 2.79 -49.5 0 1 152.15 122.64
  L 123.74 115.92
  A 1.97 1.95 -6.8 0 1 122.46 114.92
  L 115.27 101.18
  A 1.05 1.04 55.7 0 1 115.51 99.91
  Z"
/>
<path fill="#00bfb3" d="
  M 68.97 84.19
  L 107.55 101.77
  A 3.02 3.00 -1.4 0 1 108.98 103.12
  L 117.07 118.58
  A 1.55 1.53 37.0 0 1 117.22 119.61
  L 110.86 152.63
  A 5.04 5.01 -21.2 0 1 109.94 154.70
  C 99.47 168.57 82.88 175.55 65.82 172.48
  C 40.66 167.95 25.34 144.71 29.49 119.81
  A 1.44 1.40 74.0 0 1 29.93 118.99
  L 68.34 84.28
  A 0.59 0.57 36.1 0 1 68.97 84.19
  Z"
/>
<path fill="#93c90e" d="
  M 123.17 123.18
  A 0.64 0.63 -77.5 0 1 123.94 122.68
  L 150.12 128.83
  A 1.04 1.04 0.0 0 1 150.88 129.55
  C 154.21 141.30 148.92 152.72 137.41 156.82
  Q 128.07 160.14 118.13 154.25
  A 1.34 1.33 20.6 0 1 117.49 152.85
  L 123.17 123.18
  Z"
/>
</svg>